<svg width="48" height="48" viewBox="0 0 48 48" fill="none" xmlns="http://www.w3.org/2000/svg">
<circle cx="24" cy="24" r="24" fill="black"/>
<path fill-rule="evenodd" clip-rule="evenodd" d="M27.3244 15.0624C27.0611 14.9728 26.7687 14.98 26.5113 15.0824C26.254 15.1848 26.0529 15.3741 25.9522 15.6086L19.0432 31.7029C18.9911 31.8195 18.9655 31.9441 18.9679 32.0695C18.9703 32.1949 19.0007 32.3187 19.0573 32.4335C19.1138 32.5484 19.1955 32.6521 19.2974 32.7387C19.3994 32.8252 19.5196 32.8928 19.6512 32.9376C19.7827 32.9824 19.923 33.0034 20.0637 32.9995C20.2045 32.9956 20.343 32.9669 20.4711 32.9149C20.5993 32.8629 20.7146 32.7887 20.8103 32.6967C20.9061 32.6047 20.9803 32.4967 21.0287 32.3789L27.9377 16.2846C28.0384 16.0501 28.0303 15.7896 27.9152 15.5604C27.8002 15.3312 27.5877 15.152 27.3244 15.0624ZM35.257 22.5036L29.6071 19.4012C29.4883 19.336 29.3562 19.2922 29.2185 19.2724C29.0807 19.2526 28.9399 19.2572 28.8041 19.2859C28.6683 19.3146 28.5402 19.3668 28.4271 19.4396C28.3139 19.5124 28.218 19.6043 28.1447 19.7101C28.0715 19.8159 28.0224 19.9335 28.0002 20.0562C27.9779 20.1789 27.9831 20.3043 28.0153 20.4253C28.0475 20.5462 28.1061 20.6603 28.1878 20.7611C28.2695 20.8618 28.3727 20.9473 28.4915 21.0125L33.8715 23.9668C33.8768 23.9845 33.8768 24.0031 33.8715 24.0207L28.4915 26.975C28.3696 27.0389 28.2632 27.1238 28.1786 27.2247C28.094 27.3257 28.0328 27.4407 27.9988 27.563C27.9647 27.6853 27.9584 27.8124 27.9802 27.9369C28.0019 28.0613 28.0514 28.1807 28.1257 28.2879C28.1999 28.3952 28.2974 28.4882 28.4125 28.5614C28.5276 28.6346 28.658 28.6867 28.7959 28.7145C28.9339 28.7422 29.0767 28.7452 29.216 28.7232C29.3553 28.7012 29.4882 28.6547 29.6071 28.5863L35.257 25.4839L35.3447 25.4058C35.7644 25.0309 36 24.5231 36 23.9938C36 23.4644 35.7644 22.9566 35.3447 22.5817L35.257 22.5036Z" fill="#FFFFFE"/>
<path fill-rule="evenodd" clip-rule="evenodd" d="M18.5132 26.2295L13.8463 23.3118C13.8417 23.2944 13.8417 23.276 13.8463 23.2586L18.5132 20.3409C18.6189 20.2778 18.7112 20.194 18.7846 20.0943C18.858 19.9945 18.911 19.881 18.9406 19.7602C18.9701 19.6394 18.9756 19.5139 18.9567 19.391C18.9378 19.268 18.8949 19.1501 18.8305 19.0442C18.7661 18.9383 18.6815 18.8465 18.5817 18.7742C18.4818 18.7018 18.3688 18.6504 18.2491 18.623C18.1294 18.5956 18.0055 18.5926 17.8847 18.6143C17.7639 18.6361 17.6486 18.682 17.5455 18.7495L12.6445 21.8135L12.5684 21.8907C12.2044 22.2609 12 22.7624 12 23.2852C12 23.808 12.2044 24.3095 12.5684 24.6797L12.6445 24.7569L17.5455 27.8209C17.7536 27.951 18.0041 27.992 18.242 27.9347C18.4799 27.8775 18.6856 27.7268 18.814 27.5158C18.9423 27.3048 18.9827 27.0507 18.9263 26.8095C18.8699 26.5683 18.7213 26.3596 18.5132 26.2295Z" fill="#FFFFFE"/>
</svg>
